<mxfile host="app.diagrams.net" agent="Mozilla/5.0 (Windows NT 10.0; Win64; x64) AppleWebKit/537.36 (KHTML, like Gecko) Chrome/135.0.0.0 Safari/537.36" version="26.1.1">
  <diagram name="Page-1" id="eRf5dy6jk0Ow0uGdIr8p">
    <mxGraphModel dx="1615" dy="803" grid="1" gridSize="10" guides="1" tooltips="1" connect="1" arrows="1" fold="1" page="1" pageScale="1" pageWidth="827" pageHeight="1169" math="0" shadow="0">
      <root>
        <mxCell id="0" />
        <mxCell id="1" parent="0" />
        <mxCell id="--5KMjqkp7FSwG533noN-2" value="" style="rounded=0;whiteSpace=wrap;html=1;verticalAlign=middle;textShadow=1;" vertex="1" parent="1">
          <mxGeometry x="409.91999999999996" y="400" width="910" height="30" as="geometry" />
        </mxCell>
        <mxCell id="--5KMjqkp7FSwG533noN-3" value="Patient" style="text;strokeColor=none;align=center;fillColor=none;html=1;verticalAlign=middle;whiteSpace=wrap;rounded=0;" vertex="1" parent="1">
          <mxGeometry x="394.91999999999996" y="370" width="90" height="30" as="geometry" />
        </mxCell>
        <mxCell id="--5KMjqkp7FSwG533noN-4" value="" style="endArrow=none;html=1;rounded=0;" edge="1" parent="1">
          <mxGeometry width="50" height="50" relative="1" as="geometry">
            <mxPoint x="479.91999999999996" y="430" as="sourcePoint" />
            <mxPoint x="479.91999999999996" y="400" as="targetPoint" />
            <Array as="points">
              <mxPoint x="479.91999999999996" y="430" />
            </Array>
          </mxGeometry>
        </mxCell>
        <mxCell id="--5KMjqkp7FSwG533noN-5" value="" style="endArrow=none;html=1;rounded=0;" edge="1" parent="1">
          <mxGeometry width="50" height="50" relative="1" as="geometry">
            <mxPoint x="559.92" y="430" as="sourcePoint" />
            <mxPoint x="559.92" y="400" as="targetPoint" />
            <Array as="points">
              <mxPoint x="559.92" y="430" />
            </Array>
          </mxGeometry>
        </mxCell>
        <mxCell id="--5KMjqkp7FSwG533noN-6" value="" style="endArrow=none;html=1;rounded=0;" edge="1" parent="1">
          <mxGeometry width="50" height="50" relative="1" as="geometry">
            <mxPoint x="639.92" y="430" as="sourcePoint" />
            <mxPoint x="639.92" y="400" as="targetPoint" />
            <Array as="points">
              <mxPoint x="639.92" y="430" />
            </Array>
          </mxGeometry>
        </mxCell>
        <mxCell id="--5KMjqkp7FSwG533noN-7" value="" style="endArrow=none;html=1;rounded=0;" edge="1" parent="1">
          <mxGeometry width="50" height="50" relative="1" as="geometry">
            <mxPoint x="879.92" y="430" as="sourcePoint" />
            <mxPoint x="879.92" y="400" as="targetPoint" />
            <Array as="points">
              <mxPoint x="879.92" y="430" />
            </Array>
          </mxGeometry>
        </mxCell>
        <mxCell id="--5KMjqkp7FSwG533noN-8" value="" style="endArrow=none;html=1;rounded=0;" edge="1" parent="1">
          <mxGeometry width="50" height="50" relative="1" as="geometry">
            <mxPoint x="799.92" y="430" as="sourcePoint" />
            <mxPoint x="799.92" y="400" as="targetPoint" />
            <Array as="points">
              <mxPoint x="799.92" y="430" />
            </Array>
          </mxGeometry>
        </mxCell>
        <mxCell id="--5KMjqkp7FSwG533noN-9" value="" style="endArrow=none;html=1;rounded=0;" edge="1" parent="1">
          <mxGeometry width="50" height="50" relative="1" as="geometry">
            <mxPoint x="719.92" y="430" as="sourcePoint" />
            <mxPoint x="719.92" y="400" as="targetPoint" />
            <Array as="points">
              <mxPoint x="719.92" y="430" />
            </Array>
          </mxGeometry>
        </mxCell>
        <mxCell id="--5KMjqkp7FSwG533noN-10" value="" style="endArrow=none;html=1;rounded=0;" edge="1" parent="1">
          <mxGeometry width="50" height="50" relative="1" as="geometry">
            <mxPoint x="959.92" y="430" as="sourcePoint" />
            <mxPoint x="959.92" y="400" as="targetPoint" />
            <Array as="points">
              <mxPoint x="959.92" y="430" />
            </Array>
          </mxGeometry>
        </mxCell>
        <mxCell id="--5KMjqkp7FSwG533noN-11" value="" style="endArrow=none;html=1;rounded=0;" edge="1" parent="1">
          <mxGeometry width="50" height="50" relative="1" as="geometry">
            <mxPoint x="1039.92" y="430" as="sourcePoint" />
            <mxPoint x="1039.92" y="400" as="targetPoint" />
            <Array as="points">
              <mxPoint x="1039.92" y="430" />
            </Array>
          </mxGeometry>
        </mxCell>
        <mxCell id="--5KMjqkp7FSwG533noN-12" value="patientId" style="text;html=1;align=center;verticalAlign=middle;resizable=0;points=[];autosize=1;strokeColor=none;fillColor=none;" vertex="1" parent="1">
          <mxGeometry x="484.91999999999996" y="400" width="70" height="30" as="geometry" />
        </mxCell>
        <mxCell id="--5KMjqkp7FSwG533noN-13" value="email" style="text;html=1;align=center;verticalAlign=middle;resizable=0;points=[];autosize=1;strokeColor=none;fillColor=none;" vertex="1" parent="1">
          <mxGeometry x="574.92" y="400" width="50" height="30" as="geometry" />
        </mxCell>
        <mxCell id="--5KMjqkp7FSwG533noN-14" value="name" style="text;html=1;align=center;verticalAlign=middle;resizable=0;points=[];autosize=1;strokeColor=none;fillColor=none;" vertex="1" parent="1">
          <mxGeometry x="654.92" y="400" width="50" height="30" as="geometry" />
        </mxCell>
        <mxCell id="--5KMjqkp7FSwG533noN-15" value="age" style="text;html=1;align=center;verticalAlign=middle;resizable=0;points=[];autosize=1;strokeColor=none;fillColor=none;" vertex="1" parent="1">
          <mxGeometry x="739.92" y="400" width="40" height="30" as="geometry" />
        </mxCell>
        <mxCell id="--5KMjqkp7FSwG533noN-16" value="dateOfBirth" style="text;html=1;align=center;verticalAlign=middle;resizable=0;points=[];autosize=1;strokeColor=none;fillColor=none;" vertex="1" parent="1">
          <mxGeometry x="799.92" y="400" width="80" height="30" as="geometry" />
        </mxCell>
        <mxCell id="--5KMjqkp7FSwG533noN-17" value="term" style="text;html=1;align=center;verticalAlign=middle;resizable=0;points=[];autosize=1;strokeColor=none;fillColor=none;" vertex="1" parent="1">
          <mxGeometry x="894.92" y="400" width="50" height="30" as="geometry" />
        </mxCell>
        <mxCell id="--5KMjqkp7FSwG533noN-18" value="dueDate" style="text;html=1;align=center;verticalAlign=middle;resizable=0;points=[];autosize=1;strokeColor=none;fillColor=none;" vertex="1" parent="1">
          <mxGeometry x="959.92" y="400" width="70" height="30" as="geometry" />
        </mxCell>
        <mxCell id="--5KMjqkp7FSwG533noN-19" value="hasMessage" style="text;html=1;align=center;verticalAlign=middle;resizable=0;points=[];autosize=1;strokeColor=none;fillColor=none;" vertex="1" parent="1">
          <mxGeometry x="1036.92" y="400" width="90" height="30" as="geometry" />
        </mxCell>
        <mxCell id="--5KMjqkp7FSwG533noN-20" value="" style="rounded=0;whiteSpace=wrap;html=1;verticalAlign=middle;textShadow=1;" vertex="1" parent="1">
          <mxGeometry x="409.91999999999996" y="480" width="410" height="30" as="geometry" />
        </mxCell>
        <mxCell id="--5KMjqkp7FSwG533noN-21" value="" style="endArrow=none;html=1;rounded=0;" edge="1" parent="1">
          <mxGeometry width="50" height="50" relative="1" as="geometry">
            <mxPoint x="539.42" y="510" as="sourcePoint" />
            <mxPoint x="539.42" y="480" as="targetPoint" />
            <Array as="points">
              <mxPoint x="539.42" y="510" />
            </Array>
          </mxGeometry>
        </mxCell>
        <mxCell id="--5KMjqkp7FSwG533noN-22" value="" style="endArrow=none;html=1;rounded=0;" edge="1" parent="1">
          <mxGeometry width="50" height="50" relative="1" as="geometry">
            <mxPoint x="604.92" y="510" as="sourcePoint" />
            <mxPoint x="604.92" y="480" as="targetPoint" />
            <Array as="points">
              <mxPoint x="604.92" y="510" />
            </Array>
          </mxGeometry>
        </mxCell>
        <mxCell id="--5KMjqkp7FSwG533noN-23" value="Doctor" style="text;html=1;align=center;verticalAlign=middle;resizable=0;points=[];autosize=1;strokeColor=none;fillColor=none;" vertex="1" parent="1">
          <mxGeometry x="409.91999999999996" y="450" width="60" height="30" as="geometry" />
        </mxCell>
        <mxCell id="--5KMjqkp7FSwG533noN-24" value="" style="endArrow=none;html=1;rounded=0;" edge="1" parent="1">
          <mxGeometry width="50" height="50" relative="1" as="geometry">
            <mxPoint x="479.91999999999996" y="510" as="sourcePoint" />
            <mxPoint x="479.91999999999996" y="480" as="targetPoint" />
            <Array as="points">
              <mxPoint x="479.91999999999996" y="510" />
            </Array>
          </mxGeometry>
        </mxCell>
        <mxCell id="--5KMjqkp7FSwG533noN-25" value="&lt;u&gt;id&lt;/u&gt;" style="text;html=1;align=center;verticalAlign=middle;resizable=0;points=[];autosize=1;strokeColor=none;fillColor=none;" vertex="1" parent="1">
          <mxGeometry x="429.91999999999996" y="400" width="30" height="30" as="geometry" />
        </mxCell>
        <mxCell id="--5KMjqkp7FSwG533noN-27" value="&lt;u&gt;id&lt;/u&gt;" style="text;html=1;align=center;verticalAlign=middle;resizable=0;points=[];autosize=1;strokeColor=none;fillColor=none;" vertex="1" parent="1">
          <mxGeometry x="429.91999999999996" y="480" width="30" height="30" as="geometry" />
        </mxCell>
        <mxCell id="--5KMjqkp7FSwG533noN-29" value="email" style="text;html=1;align=center;verticalAlign=middle;resizable=0;points=[];autosize=1;strokeColor=none;fillColor=none;" vertex="1" parent="1">
          <mxGeometry x="484.91999999999996" y="480" width="50" height="30" as="geometry" />
        </mxCell>
        <mxCell id="--5KMjqkp7FSwG533noN-30" value="name" style="text;html=1;align=center;verticalAlign=middle;resizable=0;points=[];autosize=1;strokeColor=none;fillColor=none;" vertex="1" parent="1">
          <mxGeometry x="547.92" y="480" width="50" height="30" as="geometry" />
        </mxCell>
        <mxCell id="--5KMjqkp7FSwG533noN-32" value="PatientAssignment" style="text;html=1;align=center;verticalAlign=middle;resizable=0;points=[];autosize=1;strokeColor=none;fillColor=none;" vertex="1" parent="1">
          <mxGeometry x="404.91999999999996" y="530" width="120" height="30" as="geometry" />
        </mxCell>
        <mxCell id="--5KMjqkp7FSwG533noN-33" value="" style="rounded=0;whiteSpace=wrap;html=1;verticalAlign=middle;textShadow=1;" vertex="1" parent="1">
          <mxGeometry x="409.91999999999996" y="560" width="380" height="30" as="geometry" />
        </mxCell>
        <mxCell id="--5KMjqkp7FSwG533noN-34" value="" style="endArrow=none;html=1;rounded=0;" edge="1" parent="1">
          <mxGeometry width="50" height="50" relative="1" as="geometry">
            <mxPoint x="549.2299999999999" y="590" as="sourcePoint" />
            <mxPoint x="549.2299999999999" y="560" as="targetPoint" />
            <Array as="points">
              <mxPoint x="549.2299999999999" y="590" />
            </Array>
          </mxGeometry>
        </mxCell>
        <mxCell id="--5KMjqkp7FSwG533noN-35" value="" style="endArrow=none;html=1;rounded=0;" edge="1" parent="1">
          <mxGeometry width="50" height="50" relative="1" as="geometry">
            <mxPoint x="619.92" y="590" as="sourcePoint" />
            <mxPoint x="619.92" y="560" as="targetPoint" />
            <Array as="points">
              <mxPoint x="619.92" y="590" />
            </Array>
          </mxGeometry>
        </mxCell>
        <mxCell id="--5KMjqkp7FSwG533noN-36" value="" style="endArrow=none;html=1;rounded=0;" edge="1" parent="1">
          <mxGeometry width="50" height="50" relative="1" as="geometry">
            <mxPoint x="479.67999999999995" y="590" as="sourcePoint" />
            <mxPoint x="479.67999999999995" y="560" as="targetPoint" />
            <Array as="points">
              <mxPoint x="479.67999999999995" y="590" />
            </Array>
          </mxGeometry>
        </mxCell>
        <mxCell id="--5KMjqkp7FSwG533noN-37" value="&lt;u&gt;id&lt;/u&gt;" style="text;html=1;align=center;verticalAlign=middle;resizable=0;points=[];autosize=1;strokeColor=none;fillColor=none;" vertex="1" parent="1">
          <mxGeometry x="429.91999999999996" y="560" width="30" height="30" as="geometry" />
        </mxCell>
        <mxCell id="--5KMjqkp7FSwG533noN-39" value="doctorId" style="text;html=1;align=center;verticalAlign=middle;resizable=0;points=[];autosize=1;strokeColor=none;fillColor=none;" vertex="1" parent="1">
          <mxGeometry x="479.91999999999996" y="560" width="70" height="30" as="geometry" />
        </mxCell>
        <mxCell id="--5KMjqkp7FSwG533noN-40" value="patientId" style="text;html=1;align=center;verticalAlign=middle;resizable=0;points=[];autosize=1;strokeColor=none;fillColor=none;" vertex="1" parent="1">
          <mxGeometry x="547.92" y="560" width="70" height="30" as="geometry" />
        </mxCell>
        <mxCell id="--5KMjqkp7FSwG533noN-41" value="lastVisitDate" style="text;html=1;align=center;verticalAlign=middle;resizable=0;points=[];autosize=1;strokeColor=none;fillColor=none;" vertex="1" parent="1">
          <mxGeometry x="624.92" y="560" width="90" height="30" as="geometry" />
        </mxCell>
        <mxCell id="--5KMjqkp7FSwG533noN-42" value="" style="endArrow=none;html=1;rounded=0;exitX=0.822;exitY=0.969;exitDx=0;exitDy=0;exitPerimeter=0;" edge="1" parent="1">
          <mxGeometry width="50" height="50" relative="1" as="geometry">
            <mxPoint x="719.3499999999998" y="589.0699999999999" as="sourcePoint" />
            <mxPoint x="719.4499999999999" y="560" as="targetPoint" />
          </mxGeometry>
        </mxCell>
        <mxCell id="--5KMjqkp7FSwG533noN-43" value="addedDate" style="text;html=1;align=center;verticalAlign=middle;resizable=0;points=[];autosize=1;strokeColor=none;fillColor=none;" vertex="1" parent="1">
          <mxGeometry x="714.92" y="560" width="80" height="30" as="geometry" />
        </mxCell>
        <mxCell id="--5KMjqkp7FSwG533noN-45" value="" style="rounded=0;whiteSpace=wrap;html=1;verticalAlign=middle;textShadow=1;" vertex="1" parent="1">
          <mxGeometry x="409.91999999999996" y="640" width="400" height="30" as="geometry" />
        </mxCell>
        <mxCell id="--5KMjqkp7FSwG533noN-46" value="" style="endArrow=none;html=1;rounded=0;" edge="1" parent="1">
          <mxGeometry width="50" height="50" relative="1" as="geometry">
            <mxPoint x="559.92" y="670" as="sourcePoint" />
            <mxPoint x="559.92" y="640" as="targetPoint" />
            <Array as="points">
              <mxPoint x="559.92" y="670" />
            </Array>
          </mxGeometry>
        </mxCell>
        <mxCell id="--5KMjqkp7FSwG533noN-47" value="" style="endArrow=none;html=1;rounded=0;" edge="1" parent="1">
          <mxGeometry width="50" height="50" relative="1" as="geometry">
            <mxPoint x="479.35" y="670" as="sourcePoint" />
            <mxPoint x="479.35" y="640" as="targetPoint" />
            <Array as="points">
              <mxPoint x="479.35" y="670" />
            </Array>
          </mxGeometry>
        </mxCell>
        <mxCell id="--5KMjqkp7FSwG533noN-48" value="&lt;u&gt;id&lt;/u&gt;" style="text;html=1;align=center;verticalAlign=middle;resizable=0;points=[];autosize=1;strokeColor=none;fillColor=none;" vertex="1" parent="1">
          <mxGeometry x="429.91999999999996" y="640" width="30" height="30" as="geometry" />
        </mxCell>
        <mxCell id="--5KMjqkp7FSwG533noN-50" value="date" style="text;html=1;align=center;verticalAlign=middle;resizable=0;points=[];autosize=1;strokeColor=none;fillColor=none;" vertex="1" parent="1">
          <mxGeometry x="559.92" y="640" width="50" height="30" as="geometry" />
        </mxCell>
        <mxCell id="--5KMjqkp7FSwG533noN-52" value="time" style="text;html=1;align=center;verticalAlign=middle;resizable=0;points=[];autosize=1;strokeColor=none;fillColor=none;" vertex="1" parent="1">
          <mxGeometry x="609.92" y="640" width="50" height="30" as="geometry" />
        </mxCell>
        <mxCell id="--5KMjqkp7FSwG533noN-112" value="Reading" style="text;html=1;align=center;verticalAlign=middle;resizable=0;points=[];autosize=1;strokeColor=none;fillColor=none;" vertex="1" parent="1">
          <mxGeometry x="399.91999999999996" y="610" width="70" height="30" as="geometry" />
        </mxCell>
        <mxCell id="--5KMjqkp7FSwG533noN-118" value="" style="endArrow=none;html=1;rounded=0;" edge="1" parent="1">
          <mxGeometry width="50" height="50" relative="1" as="geometry">
            <mxPoint x="1126.92" y="430" as="sourcePoint" />
            <mxPoint x="1126.92" y="400" as="targetPoint" />
            <Array as="points">
              <mxPoint x="1126.92" y="430" />
            </Array>
          </mxGeometry>
        </mxCell>
        <mxCell id="--5KMjqkp7FSwG533noN-121" value="patientAssignments[]" style="text;html=1;align=center;verticalAlign=middle;resizable=0;points=[];autosize=1;strokeColor=none;fillColor=none;" vertex="1" parent="1">
          <mxGeometry x="1126.92" y="400" width="130" height="30" as="geometry" />
        </mxCell>
        <mxCell id="--5KMjqkp7FSwG533noN-122" value="" style="endArrow=none;html=1;rounded=0;" edge="1" parent="1">
          <mxGeometry width="50" height="50" relative="1" as="geometry">
            <mxPoint x="1256.92" y="430" as="sourcePoint" />
            <mxPoint x="1256.92" y="400" as="targetPoint" />
            <Array as="points">
              <mxPoint x="1256.92" y="430" />
            </Array>
          </mxGeometry>
        </mxCell>
        <mxCell id="--5KMjqkp7FSwG533noN-123" value="readings[]" style="text;html=1;align=center;verticalAlign=middle;resizable=0;points=[];autosize=1;strokeColor=none;fillColor=none;" vertex="1" parent="1">
          <mxGeometry x="1249.92" y="400" width="80" height="30" as="geometry" />
        </mxCell>
        <mxCell id="--5KMjqkp7FSwG533noN-128" value="Specialty" style="text;html=1;align=center;verticalAlign=middle;resizable=0;points=[];autosize=1;strokeColor=none;fillColor=none;" vertex="1" parent="1">
          <mxGeometry x="609.92" y="480" width="70" height="30" as="geometry" />
        </mxCell>
        <mxCell id="--5KMjqkp7FSwG533noN-129" value="" style="endArrow=none;html=1;rounded=0;" edge="1" parent="1">
          <mxGeometry width="50" height="50" relative="1" as="geometry">
            <mxPoint x="679.66" y="510" as="sourcePoint" />
            <mxPoint x="679.66" y="480" as="targetPoint" />
            <Array as="points">
              <mxPoint x="679.66" y="510" />
            </Array>
          </mxGeometry>
        </mxCell>
        <mxCell id="--5KMjqkp7FSwG533noN-131" value="patientAssignments[]" style="text;html=1;align=center;verticalAlign=middle;resizable=0;points=[];autosize=1;strokeColor=none;fillColor=none;" vertex="1" parent="1">
          <mxGeometry x="683.92" y="480" width="130" height="30" as="geometry" />
        </mxCell>
        <mxCell id="--5KMjqkp7FSwG533noN-133" style="edgeStyle=orthogonalEdgeStyle;rounded=0;orthogonalLoop=1;jettySize=auto;html=1;" edge="1" parent="1" source="--5KMjqkp7FSwG533noN-39">
          <mxGeometry relative="1" as="geometry">
            <mxPoint x="442.91999999999996" y="510" as="targetPoint" />
            <Array as="points">
              <mxPoint x="514.92" y="600" />
              <mxPoint x="389.91999999999996" y="600" />
              <mxPoint x="389.91999999999996" y="530" />
              <mxPoint x="442.91999999999996" y="530" />
            </Array>
          </mxGeometry>
        </mxCell>
        <mxCell id="--5KMjqkp7FSwG533noN-134" style="edgeStyle=orthogonalEdgeStyle;rounded=0;orthogonalLoop=1;jettySize=auto;html=1;entryX=0.626;entryY=1.071;entryDx=0;entryDy=0;entryPerimeter=0;" edge="1" parent="1" source="--5KMjqkp7FSwG533noN-40" target="--5KMjqkp7FSwG533noN-25">
          <mxGeometry relative="1" as="geometry">
            <Array as="points">
              <mxPoint x="582.92" y="540" />
              <mxPoint x="849.92" y="540" />
              <mxPoint x="849.92" y="450" />
              <mxPoint x="448.91999999999996" y="450" />
            </Array>
          </mxGeometry>
        </mxCell>
        <mxCell id="--5KMjqkp7FSwG533noN-136" value="patientId" style="text;html=1;align=center;verticalAlign=middle;resizable=0;points=[];autosize=1;strokeColor=none;fillColor=none;" vertex="1" parent="1">
          <mxGeometry x="484.91999999999996" y="640" width="70" height="30" as="geometry" />
        </mxCell>
        <mxCell id="--5KMjqkp7FSwG533noN-137" style="edgeStyle=orthogonalEdgeStyle;rounded=0;orthogonalLoop=1;jettySize=auto;html=1;entryX=0.256;entryY=1.083;entryDx=0;entryDy=0;entryPerimeter=0;" edge="1" parent="1" source="--5KMjqkp7FSwG533noN-136" target="--5KMjqkp7FSwG533noN-25">
          <mxGeometry relative="1" as="geometry">
            <Array as="points">
              <mxPoint x="519.92" y="610" />
              <mxPoint x="369.91999999999996" y="610" />
              <mxPoint x="369.91999999999996" y="450" />
              <mxPoint x="437.91999999999996" y="450" />
            </Array>
          </mxGeometry>
        </mxCell>
        <mxCell id="--5KMjqkp7FSwG533noN-138" value="" style="endArrow=none;html=1;rounded=0;" edge="1" parent="1">
          <mxGeometry width="50" height="50" relative="1" as="geometry">
            <mxPoint x="609.92" y="670" as="sourcePoint" />
            <mxPoint x="609.92" y="640" as="targetPoint" />
            <Array as="points">
              <mxPoint x="609.92" y="670" />
            </Array>
          </mxGeometry>
        </mxCell>
        <mxCell id="--5KMjqkp7FSwG533noN-139" value="type" style="text;html=1;align=center;verticalAlign=middle;resizable=0;points=[];autosize=1;strokeColor=none;fillColor=none;" vertex="1" parent="1">
          <mxGeometry x="659.92" y="640" width="50" height="30" as="geometry" />
        </mxCell>
        <mxCell id="--5KMjqkp7FSwG533noN-140" value="" style="endArrow=none;html=1;rounded=0;" edge="1" parent="1">
          <mxGeometry width="50" height="50" relative="1" as="geometry">
            <mxPoint x="659.31" y="670" as="sourcePoint" />
            <mxPoint x="659.31" y="640" as="targetPoint" />
            <Array as="points">
              <mxPoint x="659.31" y="670" />
            </Array>
          </mxGeometry>
        </mxCell>
        <mxCell id="--5KMjqkp7FSwG533noN-142" value="" style="endArrow=none;html=1;rounded=0;" edge="1" parent="1">
          <mxGeometry width="50" height="50" relative="1" as="geometry">
            <mxPoint x="709.31" y="670" as="sourcePoint" />
            <mxPoint x="709.31" y="640" as="targetPoint" />
            <Array as="points">
              <mxPoint x="709.31" y="670" />
            </Array>
          </mxGeometry>
        </mxCell>
        <mxCell id="--5KMjqkp7FSwG533noN-143" value="level" style="text;html=1;align=center;verticalAlign=middle;resizable=0;points=[];autosize=1;strokeColor=none;fillColor=none;" vertex="1" parent="1">
          <mxGeometry x="709.92" y="640" width="50" height="30" as="geometry" />
        </mxCell>
        <mxCell id="--5KMjqkp7FSwG533noN-144" value="" style="endArrow=none;html=1;rounded=0;" edge="1" parent="1">
          <mxGeometry width="50" height="50" relative="1" as="geometry">
            <mxPoint x="759.92" y="670" as="sourcePoint" />
            <mxPoint x="759.92" y="640" as="targetPoint" />
            <Array as="points">
              <mxPoint x="759.92" y="670" />
            </Array>
          </mxGeometry>
        </mxCell>
        <mxCell id="--5KMjqkp7FSwG533noN-145" value="notes" style="text;html=1;align=center;verticalAlign=middle;resizable=0;points=[];autosize=1;strokeColor=none;fillColor=none;" vertex="1" parent="1">
          <mxGeometry x="759.92" y="640" width="50" height="30" as="geometry" />
        </mxCell>
      </root>
    </mxGraphModel>
  </diagram>
</mxfile>
